<svg width="46" height="45" viewBox="0 0 46 45" fill="none" xmlns="http://www.w3.org/2000/svg">
<circle cx="23" cy="22.5" r="22.5" fill="#4F8D52"/>
<path d="M15.7099 20.3662C15.4103 20.3662 15.144 20.4843 14.9442 20.7035C14.7278 20.9228 14.6279 21.1927 14.6279 21.5131C14.6279 21.8336 14.7278 22.0866 14.9442 22.3227C15.1606 22.542 15.4103 22.6601 15.7099 22.6601C16.0096 22.6601 16.2759 22.542 16.4923 22.3227C16.7087 22.1035 16.8252 21.8336 16.8252 21.5131C16.8252 21.1927 16.7087 20.9228 16.4923 20.7035C16.2759 20.4674 16.0262 20.3662 15.7099 20.3662Z" fill="white"/>
<path d="M25.0478 20.3491C24.7482 20.3491 24.4819 20.4672 24.2821 20.6865C24.0657 20.9057 23.9658 21.1756 23.9658 21.496C23.9658 21.8165 24.0657 22.0695 24.2821 22.3056C24.4985 22.5249 24.7482 22.643 25.0478 22.643C25.3474 22.643 25.6138 22.5249 25.8302 22.3056C26.0466 22.0864 26.1631 21.8165 26.1631 21.496C26.1631 21.1756 26.0466 20.9226 25.8302 20.6865C25.6304 20.4503 25.3641 20.3491 25.0478 20.3491Z" fill="white"/>
<path d="M31.29 20.3662C30.9904 20.3662 30.724 20.4843 30.5243 20.7035C30.3079 20.9228 30.208 21.1927 30.208 21.5131C30.208 21.8336 30.3079 22.0866 30.5243 22.3227C30.7407 22.542 30.9904 22.6601 31.29 22.6601C31.5896 22.6601 31.856 22.542 32.0724 22.3227C32.2888 22.1035 32.4053 21.8336 32.4053 21.5131C32.4053 21.1927 32.2888 20.9228 32.0724 20.7035C31.856 20.4674 31.5896 20.3662 31.29 20.3662Z" fill="white"/>
<path d="M34.0536 12.0342H12.9464C11.3317 12.0342 10 13.3835 10 15.0196V27.1129C10 28.7489 11.3317 30.0983 12.9464 30.0983H21.2361C21.2361 30.0983 22.8342 34.5342 23.4168 34.5342C23.9994 34.5342 25.7306 30.0983 25.7306 30.0983H34.0536C35.6683 30.0983 37 28.7489 37 27.1129V15.0196C37 13.3835 35.6683 12.0342 34.0536 12.0342ZM17.8403 23.1998C17.4242 23.6721 16.775 23.8745 16.0758 23.8745C15.4433 23.8745 14.9772 23.689 14.6443 23.4191H14.6276V23.7564H13.0462V16.7568H14.6276V19.4386H14.6609C15.0937 19.0675 15.6597 18.9495 16.3255 18.9157C16.8915 18.8989 17.4908 19.2531 17.857 19.6747C18.2065 20.0964 18.4729 20.7542 18.4729 21.4795C18.4729 22.2722 18.2731 22.7276 17.8403 23.1998ZM21.2528 23.8239H19.6381C19.6381 23.8239 19.6381 20.147 19.6381 19.4892C19.6381 18.4941 18.8557 18.3591 18.8557 18.3591V16.6219C18.8557 16.6219 21.1196 16.7568 21.2528 19.5398C21.2528 20.3325 21.2528 23.8239 21.2528 23.8239ZM27.5949 22.4915C27.4618 22.8119 27.262 23.0818 26.9957 23.3348C26.746 23.5709 26.4464 23.7564 26.1134 23.8914C25.7805 24.0263 25.431 24.0938 25.0647 24.0938C24.6985 24.0938 24.349 24.0263 24.0327 23.8914C23.6998 23.7564 23.4001 23.5709 23.1504 23.3348C22.8841 23.0818 22.6843 22.795 22.5512 22.4915C22.418 22.1879 22.3514 21.8505 22.3514 21.4963C22.3514 21.1421 22.418 20.8217 22.5512 20.5012C22.6843 20.1976 22.8841 19.9109 23.1504 19.6579C23.4168 19.4217 23.6998 19.2362 24.0327 19.1013C24.3656 18.9663 24.7152 18.8989 25.0647 18.8989C25.431 18.8989 25.7805 18.9663 26.1134 19.1013C26.4464 19.2362 26.746 19.4217 26.9957 19.6579C27.262 19.9109 27.4451 20.1807 27.5949 20.5012C27.7281 20.8217 27.7947 21.1421 27.7947 21.4963C27.7947 21.8505 27.7281 22.171 27.5949 22.4915ZM33.9538 23.183C33.9538 24.4142 33.7207 25.1564 33.188 25.6792C32.5388 26.3033 31.6233 26.337 30.8576 26.2358V24.9708C31.5068 25.0383 32.389 24.5998 32.389 23.7564V23.436H32.3724C32.0062 23.942 31.4901 24.1275 30.7744 24.1275C30.1252 24.1275 29.5592 23.8914 29.1763 23.436C28.7935 22.9806 28.6104 22.3734 28.6104 21.6144C28.6104 20.7542 28.8268 20.0795 29.2429 19.5735C29.6757 19.0675 30.275 18.8314 30.9741 18.8314C31.59 18.8314 31.9895 18.9832 32.3724 19.3374H32.389V18.9495H33.9704V23.183H33.9538Z" fill="white"/>
</svg>
