<svg width="239" height="60" viewBox="0 0 239 60" fill="none" xmlns="http://www.w3.org/2000/svg">
<path d="M11.6834 12.4773C12.5569 11.598 13.9901 11.5935 14.8695 12.4662L22.8402 20.3828C22.9395 19.6287 22.8439 18.7553 22.5243 17.7936C21.2809 14.0515 19.2456 7.92699 18.0021 4.18483C16.7587 0.442675 13.5979 -0.207587 10.979 2.74046C8.35944 5.68851 4.0738 10.5132 1.45421 13.4613C-1.16537 16.4093 -0.147342 19.4715 3.71567 20.2656C7.57868 21.0597 13.8996 22.3595 17.7627 23.1536C18.344 23.273 18.8867 23.3197 19.3842 23.3004L11.6945 15.6634C10.8152 14.7899 10.8107 13.3567 11.6834 12.4773Z" fill="#4F8D52"/>
<path d="M42.1894 11.5848C41.3159 10.7054 39.8827 10.7009 39.0033 11.5736L31.0326 19.4902C30.9333 18.7361 31.0289 17.8627 31.3485 16.901C32.5919 13.1589 34.6272 7.03441 35.8707 3.29225C37.1141 -0.449904 40.2749 -1.10017 42.8938 1.84788C45.5134 4.79593 49.799 9.62062 52.4186 12.5687C55.0382 15.5167 54.0201 18.579 50.1571 19.3731C46.2941 20.1672 39.9732 21.467 36.1101 22.2611C35.5288 22.3804 34.9861 22.4271 34.4886 22.4079L42.1783 14.7701C43.0576 13.8974 43.0628 12.4634 42.1894 11.5848Z" fill="#4F8D52"/>
<path d="M41.1043 40.2926C40.4948 40.9065 39.4938 40.9095 38.8799 40.3L33.3145 34.7724C33.2448 35.2988 33.3115 35.9091 33.5347 36.5801C34.4029 39.193 35.8236 43.469 36.6918 46.0819C37.5601 48.6948 39.7667 49.1486 41.5958 47.0903C43.4243 45.032 46.4168 41.6635 48.246 39.6052C50.0752 37.5469 49.3641 35.4086 46.6674 34.8547C43.9707 34.3001 39.5568 33.3925 36.8601 32.8379C36.4538 32.7541 36.0757 32.7223 35.7279 32.7356L41.0968 38.0682C41.7108 38.6777 41.7137 39.6786 41.1043 40.2926Z" fill="#4F8D52"/>
<path d="M11.6834 40.673C12.5569 41.5524 13.9901 41.5568 14.8695 40.6841L22.8402 32.7676C22.9395 33.5216 22.8439 34.3951 22.5243 35.3567C21.2809 39.0989 19.2456 45.2234 18.0021 48.9655C16.7587 52.7077 13.5979 53.3579 10.979 50.4099C8.35944 47.4618 4.0738 42.6371 1.45421 39.6891C-1.16537 36.741 -0.147342 33.6788 3.71567 32.8847C7.57868 32.0906 13.8996 30.7908 17.7627 29.9967C18.344 29.8773 18.8867 29.8306 19.3842 29.8499L11.6945 37.487C10.8152 38.3604 10.8107 39.7936 11.6834 40.673Z" fill="#4F8D52"/>
<path fill-rule="evenodd" clip-rule="evenodd" d="M53.5287 56.1177C54.4837 55.9753 55.3727 56.6345 55.5143 57.5895C55.656 58.5445 54.9968 59.4335 54.0425 59.5751C52.1355 59.8584 50.3063 60 48.558 60C42.2578 60 37.0001 58.1641 32.8783 54.5154C30.5968 52.4957 28.6801 49.9191 27.1824 46.8561C26.0027 44.4456 25.0788 41.7289 24.4353 38.7816C23.7635 35.7075 23.4995 32.5541 23.4714 29.4118L23.418 23.4838C23.418 22.2062 24.4538 21.1704 25.7313 21.1704H28.5459C32.509 21.1704 35.7522 24.1103 35.7522 27.7034C35.7522 31.2965 32.509 34.2364 28.5459 34.2364H27.2113C27.3507 35.3961 27.559 36.7189 27.8697 38.1261C28.7839 42.2635 30.7985 48.0135 35.2072 51.9092C39.6626 55.8463 45.8272 57.2618 53.5287 56.1177ZM27.0137 25.0178H28.7932C30.3184 25.0178 31.567 26.2657 31.567 27.7916C31.567 29.3168 30.3191 30.5654 28.7932 30.5654H27.0137V25.0178Z" fill="#4F8D52"/>
<path d="M72.4532 38.368V19.936H75.7412V35.56H84.3572V38.368H72.4532ZM96.2301 38.776C95.7021 38.968 95.4381 38.808 95.4381 38.296V37.288C94.9741 37.736 94.4381 38.08 93.8301 38.32C93.2381 38.576 92.5821 38.704 91.8621 38.704C91.0941 38.704 90.3661 38.592 89.6781 38.368C89.0061 38.16 88.4141 37.816 87.9021 37.336C87.4061 36.872 87.0061 36.28 86.7021 35.56C86.4141 34.824 86.2701 33.952 86.2701 32.944V25.072H89.5101V33.064C89.5101 34.024 89.7661 34.744 90.2781 35.224C90.8061 35.688 91.4781 35.92 92.2941 35.92C93.1101 35.92 93.7901 35.648 94.3341 35.104C94.8941 34.544 95.1741 33.784 95.1741 32.824V25.072H98.4141V37.984L96.2301 38.776ZM112.718 34.144C112.622 34.976 112.398 35.688 112.046 36.28C111.694 36.872 111.254 37.36 110.726 37.744C110.214 38.128 109.622 38.408 108.95 38.584C108.278 38.76 107.566 38.848 106.814 38.848C105.998 38.848 105.222 38.736 104.486 38.512C103.766 38.304 103.134 37.968 102.59 37.504C102.046 37.056 101.614 36.48 101.294 35.776C100.974 35.072 100.814 34.224 100.814 33.232V30.208C100.814 29.216 100.974 28.368 101.294 27.664C101.614 26.96 102.046 26.384 102.59 25.936C103.134 25.472 103.766 25.136 104.486 24.928C105.222 24.704 105.998 24.592 106.814 24.592C107.566 24.592 108.278 24.68 108.95 24.856C109.622 25.032 110.214 25.312 110.726 25.696C111.254 26.08 111.694 26.568 112.046 27.16C112.398 27.752 112.622 28.464 112.718 29.296L109.454 29.56C109.358 28.824 109.07 28.28 108.59 27.928C108.126 27.576 107.534 27.4 106.814 27.4C105.998 27.4 105.334 27.624 104.822 28.072C104.31 28.504 104.054 29.192 104.054 30.136V33.304C104.054 34.248 104.31 34.944 104.822 35.392C105.334 35.824 105.998 36.04 106.814 36.04C107.534 36.04 108.126 35.864 108.59 35.512C109.07 35.16 109.358 34.616 109.454 33.88L112.718 34.144ZM115.843 38.776C115.315 38.952 115.051 38.792 115.051 38.296V19.696H118.291V30.448L123.499 25.072H127.603L121.339 31.432L127.843 38.368H123.643L118.291 32.584V37.936L115.843 38.776ZM134.672 43.408H131.24L133.4 38.296L128.312 25.072H131.696L134.984 34.36L138.344 25.072H141.752L134.672 43.408ZM162.057 25.72C162.057 26.76 161.897 27.648 161.577 28.384C161.257 29.104 160.809 29.696 160.233 30.16C159.673 30.624 158.993 30.968 158.193 31.192C157.409 31.4 156.553 31.504 155.625 31.504H152.241V37.912L149.745 38.776C149.217 38.968 148.953 38.808 148.953 38.296V19.936H155.625C156.553 19.936 157.409 20.048 158.193 20.272C158.993 20.48 159.673 20.816 160.233 21.28C160.809 21.744 161.257 22.344 161.577 23.08C161.897 23.8 162.057 24.68 162.057 25.72ZM158.697 25.72C158.697 25.112 158.585 24.616 158.361 24.232C158.153 23.832 157.865 23.528 157.497 23.32C157.129 23.096 156.697 22.944 156.201 22.864C155.721 22.784 155.209 22.744 154.665 22.744H152.241V28.696H154.665C155.209 28.696 155.721 28.656 156.201 28.576C156.697 28.496 157.129 28.352 157.497 28.144C157.865 27.92 158.153 27.616 158.361 27.232C158.585 26.848 158.697 26.344 158.697 25.72ZM173.667 38.776C173.411 38.856 173.227 38.864 173.115 38.8C173.003 38.736 172.923 38.584 172.875 38.344L172.635 37.096C172.187 37.592 171.651 37.976 171.027 38.248C170.403 38.52 169.707 38.656 168.939 38.656C168.155 38.656 167.419 38.544 166.731 38.32C166.043 38.112 165.435 37.768 164.907 37.288C164.395 36.824 163.987 36.232 163.683 35.512C163.395 34.776 163.251 33.896 163.251 32.872V30.376C163.251 29.352 163.395 28.48 163.683 27.76C163.987 27.024 164.395 26.424 164.907 25.96C165.419 25.496 166.019 25.152 166.707 24.928C167.395 24.704 168.131 24.592 168.915 24.592C169.635 24.592 170.291 24.72 170.883 24.976C171.491 25.216 172.027 25.552 172.491 25.984V24.832H175.491V35.44L175.947 37.984L173.667 38.776ZM172.227 30.352C172.195 29.44 171.915 28.72 171.387 28.192C170.859 27.664 170.187 27.4 169.371 27.4C168.523 27.4 167.827 27.632 167.283 28.096C166.755 28.56 166.491 29.272 166.491 30.232V33.016C166.491 33.976 166.755 34.688 167.283 35.152C167.827 35.616 168.523 35.848 169.371 35.848C170.187 35.848 170.859 35.592 171.387 35.08C171.915 34.552 172.195 33.824 172.227 32.896V30.352ZM179.171 38.776C178.643 38.952 178.379 38.792 178.379 38.296V24.832H181.355V26.224C181.819 25.712 182.371 25.312 183.011 25.024C183.651 24.736 184.371 24.592 185.171 24.592C185.395 24.592 185.635 24.608 185.891 24.64C186.147 24.672 186.363 24.704 186.539 24.736L186.299 27.664C186.123 27.632 185.939 27.608 185.747 27.592C185.555 27.576 185.363 27.568 185.171 27.568C184.739 27.568 184.307 27.632 183.875 27.76C183.459 27.872 183.083 28.048 182.747 28.288C182.427 28.528 182.163 28.824 181.955 29.176C181.747 29.512 181.635 29.904 181.619 30.352V37.936L179.171 38.776ZM189.25 38.776C188.722 38.952 188.458 38.792 188.458 38.296V19.696H191.698V30.448L196.906 25.072H201.01L194.746 31.432L201.25 38.368H197.05L191.698 32.584V37.936L189.25 38.776ZM203.015 22.384V19H206.567V22.384H203.015ZM203.951 38.776C203.423 38.952 203.159 38.792 203.159 38.296V25.072H206.399V37.936L203.951 38.776ZM210.32 38.776C209.792 38.952 209.528 38.792 209.528 38.296V24.832H212.504V26.008C212.952 25.56 213.48 25.216 214.088 24.976C214.696 24.72 215.36 24.592 216.08 24.592C216.848 24.592 217.568 24.704 218.24 24.928C218.928 25.152 219.52 25.496 220.016 25.96C220.528 26.424 220.928 27.024 221.216 27.76C221.52 28.48 221.672 29.352 221.672 30.376V37.936L219.152 38.776C218.88 38.856 218.688 38.856 218.576 38.776C218.48 38.712 218.432 38.552 218.432 38.296V30.232C218.432 29.272 218.168 28.56 217.64 28.096C217.128 27.632 216.464 27.4 215.648 27.4C214.832 27.4 214.152 27.664 213.608 28.192C213.08 28.72 212.8 29.44 212.768 30.352V37.936L210.32 38.776ZM236.311 37.48C236.311 38.488 236.143 39.344 235.807 40.048C235.487 40.768 235.047 41.36 234.487 41.824C233.943 42.288 233.295 42.624 232.543 42.832C231.807 43.056 231.023 43.168 230.191 43.168C229.487 43.168 228.815 43.088 228.175 42.928C227.535 42.784 226.951 42.552 226.423 42.232C225.895 41.912 225.447 41.504 225.079 41.008C224.711 40.512 224.455 39.92 224.311 39.232L227.647 39.064C227.823 39.544 228.135 39.888 228.583 40.096C229.047 40.32 229.583 40.432 230.191 40.432C231.007 40.432 231.687 40.2 232.231 39.736C232.775 39.288 233.047 38.584 233.047 37.624V36.784C232.615 37.152 232.119 37.432 231.559 37.624C231.015 37.832 230.415 37.936 229.759 37.936C228.975 37.936 228.239 37.824 227.551 37.6C226.863 37.392 226.255 37.056 225.727 36.592C225.215 36.112 224.807 35.512 224.503 34.792C224.215 34.056 224.071 33.176 224.071 32.152V30.376C224.071 29.352 224.215 28.48 224.503 27.76C224.807 27.024 225.215 26.424 225.727 25.96C226.239 25.496 226.839 25.152 227.527 24.928C228.215 24.704 228.951 24.592 229.735 24.592C230.455 24.592 231.111 24.72 231.703 24.976C232.311 25.216 232.847 25.552 233.311 25.984V24.832H236.311V37.48ZM233.047 30.496C233.047 29.536 232.775 28.784 232.231 28.24C231.703 27.68 231.023 27.4 230.191 27.4C229.343 27.4 228.647 27.632 228.103 28.096C227.575 28.56 227.311 29.272 227.311 30.232V32.296C227.311 33.256 227.575 33.968 228.103 34.432C228.647 34.896 229.343 35.128 230.191 35.128C231.007 35.128 231.679 34.872 232.207 34.36C232.735 33.832 233.015 33.104 233.047 32.176V30.496Z" fill="white"/>
</svg>
