<svg width="46" height="45" viewBox="0 0 46 45" fill="none" xmlns="http://www.w3.org/2000/svg">
<circle cx="23" cy="22.5" r="22.5" fill="#4F8D52"/>
<path fill-rule="evenodd" clip-rule="evenodd" d="M24.3953 14.2701C26.5055 12.16 29.9948 12.16 32.105 14.2701C34.2152 16.3803 34.2152 19.8697 32.105 21.9799L28.254 25.8309C26.421 27.8157 23.4383 27.92 21.3834 26.5501C20.6654 26.0714 20.4714 25.1013 20.9501 24.3833C21.4288 23.6653 22.3989 23.4712 23.1169 23.9499C24.0517 24.5732 25.2995 24.4354 25.969 23.6989C25.9857 23.6806 26.0028 23.6627 26.0203 23.6451L29.8953 19.7701C30.7851 18.8803 30.7851 17.3697 29.8953 16.4799C29.0374 15.6219 27.6022 15.5912 26.7029 16.3877L26.5502 16.6167C26.0716 17.3347 25.1015 17.5288 24.3834 17.0501C23.6654 16.5714 23.4714 15.6013 23.9501 14.8833L24.2001 14.5083C24.2572 14.4227 24.3226 14.3429 24.3953 14.2701Z" fill="white"/>
<path fill-rule="evenodd" clip-rule="evenodd" d="M18.6989 20.0939C20.5392 18.4209 23.3714 17.9817 25.5625 19.625C26.2529 20.1428 26.3928 21.1222 25.875 21.8125C25.3572 22.5029 24.3779 22.6428 23.6875 22.125C22.8884 21.5257 21.739 21.5778 20.8342 22.3765L16.9973 26.3372L16.9799 26.3549C16.09 27.2447 16.09 28.7554 16.9799 29.6452C17.8697 30.535 19.3803 30.535 20.2701 29.6452L21.375 30.75L20.2701 29.6452L20.6451 29.2702C21.2553 28.66 22.2447 28.66 22.8549 29.2702C23.465 29.8804 23.465 30.8697 22.8549 31.4799L22.4799 31.8549C20.3697 33.9651 16.8803 33.9651 14.7701 31.8549C12.6631 29.7479 12.66 26.2659 14.7606 24.1547L18.6277 20.1628C18.6507 20.1391 18.6745 20.1161 18.6989 20.0939Z" fill="white"/>
</svg>
