<svg width="46" height="45" viewBox="0 0 46 45" fill="none" xmlns="http://www.w3.org/2000/svg">
<circle cx="23" cy="22.5" r="22.5" fill="#4F8D52"/>
<path fill-rule="evenodd" clip-rule="evenodd" d="M34.2473 13.8946C35.4309 14.2099 36.3623 15.1462 36.6776 16.3395C37.25 18.4982 37.2451 22.9998 37.2451 22.9998C37.2451 22.9998 37.2451 27.5015 36.6727 29.6602C36.3574 30.8487 35.426 31.7849 34.2424 32.1051C32.0983 32.6823 23.4976 32.6823 23.4976 32.6823C23.4976 32.6823 14.8969 32.6823 12.7527 32.1051C11.5691 31.7897 10.6377 30.8535 10.3224 29.6602C9.75 27.5015 9.75 22.9998 9.75 22.9998C9.75 22.9998 9.75 18.4982 10.3273 16.3346C10.6426 15.1462 11.574 14.2099 12.7576 13.8898C14.9017 13.3125 23.5024 13.3125 23.5024 13.3125C23.5024 13.3125 32.0983 13.3125 34.2473 13.8946ZM20.6889 18.9105V27.0892L27.878 22.9999L20.6889 18.9105Z" fill="white"/>
</svg>
