<svg width="46" height="45" viewBox="0 0 46 45" fill="none" xmlns="http://www.w3.org/2000/svg">
<circle cx="23" cy="22.5" r="22.5" fill="white"/>
<path d="M15.7099 20.3663C15.4103 20.3663 15.144 20.4844 14.9442 20.7037C14.7278 20.9229 14.6279 21.1928 14.6279 21.5133C14.6279 21.8337 14.7278 22.0867 14.9442 22.3229C15.1606 22.5421 15.4103 22.6602 15.7099 22.6602C16.0096 22.6602 16.2759 22.5421 16.4923 22.3229C16.7087 22.1036 16.8252 21.8337 16.8252 21.5133C16.8252 21.1928 16.7087 20.9229 16.4923 20.7037C16.2759 20.4675 16.0262 20.3663 15.7099 20.3663Z" fill="black"/>
<path d="M25.0481 20.3491C24.7484 20.3491 24.4821 20.4672 24.2823 20.6865C24.0659 20.9057 23.9661 21.1756 23.9661 21.496C23.9661 21.8165 24.0659 22.0695 24.2823 22.3056C24.4987 22.5249 24.7484 22.643 25.0481 22.643C25.3477 22.643 25.614 22.5249 25.8304 22.3056C26.0468 22.0864 26.1634 21.8165 26.1634 21.496C26.1634 21.1756 26.0468 20.9226 25.8304 20.6865C25.6307 20.4503 25.3643 20.3491 25.0481 20.3491Z" fill="black"/>
<path d="M31.2898 20.3663C30.9901 20.3663 30.7238 20.4844 30.524 20.7037C30.3076 20.9229 30.2078 21.1928 30.2078 21.5133C30.2078 21.8337 30.3076 22.0867 30.524 22.3229C30.7404 22.5421 30.9901 22.6602 31.2898 22.6602C31.5894 22.6602 31.8557 22.5421 32.0721 22.3229C32.2885 22.1036 32.4051 21.8337 32.4051 21.5133C32.4051 21.1928 32.2885 20.9229 32.0721 20.7037C31.8557 20.4675 31.5894 20.3663 31.2898 20.3663Z" fill="black"/>
<path d="M34.0536 12.0341H12.9464C11.3317 12.0341 10 13.3834 10 15.0195V27.1128C10 28.7489 11.3317 30.0982 12.9464 30.0982H21.2361C21.2361 30.0982 22.8342 34.5341 23.4168 34.5341C23.9994 34.5341 25.7306 30.0982 25.7306 30.0982H34.0536C35.6683 30.0982 37 28.7489 37 27.1128V15.0195C37 13.3834 35.6683 12.0341 34.0536 12.0341ZM17.8403 23.1998C17.4242 23.672 16.775 23.8744 16.0758 23.8744C15.4433 23.8744 14.9772 23.6889 14.6443 23.4191H14.6276V23.7564H13.0462V16.7568H14.6276V19.4385H14.6609C15.0937 19.0675 15.6597 18.9494 16.3255 18.9157C16.8915 18.8988 17.4908 19.253 17.857 19.6747C18.2065 20.0963 18.4729 20.7541 18.4729 21.4794C18.4729 22.2721 18.2731 22.7275 17.8403 23.1998ZM21.2528 23.8238H19.6381C19.6381 23.8238 19.6381 20.1469 19.6381 19.4891C19.6381 18.494 18.8557 18.3591 18.8557 18.3591V16.6218C18.8557 16.6218 21.1196 16.7568 21.2528 19.5397C21.2528 20.3325 21.2528 23.8238 21.2528 23.8238ZM27.5949 22.4914C27.4618 22.8119 27.262 23.0817 26.9957 23.3347C26.746 23.5709 26.4464 23.7564 26.1134 23.8913C25.7805 24.0262 25.431 24.0937 25.0647 24.0937C24.6985 24.0937 24.349 24.0262 24.0327 23.8913C23.6998 23.7564 23.4001 23.5709 23.1504 23.3347C22.8841 23.0817 22.6843 22.795 22.5512 22.4914C22.418 22.1878 22.3514 21.8505 22.3514 21.4963C22.3514 21.1421 22.418 20.8216 22.5512 20.5011C22.6843 20.1975 22.8841 19.9108 23.1504 19.6578C23.4168 19.4217 23.6998 19.2361 24.0327 19.1012C24.3656 18.9663 24.7152 18.8988 25.0647 18.8988C25.431 18.8988 25.7805 18.9663 26.1134 19.1012C26.4464 19.2361 26.746 19.4217 26.9957 19.6578C27.262 19.9108 27.4451 20.1807 27.5949 20.5011C27.7281 20.8216 27.7947 21.1421 27.7947 21.4963C27.7947 21.8505 27.7281 22.1709 27.5949 22.4914ZM33.9538 23.1829C33.9538 24.4142 33.7207 25.1563 33.188 25.6792C32.5388 26.3032 31.6233 26.337 30.8576 26.2358V24.9708C31.5068 25.0382 32.389 24.5997 32.389 23.7564V23.4359H32.3724C32.0062 23.9419 31.4901 24.1274 30.7744 24.1274C30.1252 24.1274 29.5592 23.8913 29.1763 23.4359C28.7935 22.9805 28.6104 22.3733 28.6104 21.6143C28.6104 20.7541 28.8268 20.0795 29.2429 19.5735C29.6757 19.0675 30.275 18.8313 30.9741 18.8313C31.59 18.8313 31.9895 18.9831 32.3724 19.3373H32.389V18.9494H33.9704V23.1829H33.9538Z" fill="black"/>
</svg>
