<svg width="40" height="40" viewBox="0 0 40 40" fill="none" xmlns="http://www.w3.org/2000/svg">
<path d="M1 20C1 22.4951 1.49145 24.9658 2.44629 27.271C3.40113 29.5762 4.80066 31.6707 6.56497 33.435C8.32928 35.1993 10.4238 36.5989 12.729 37.5537C15.0342 38.5085 17.5049 39 20 39C22.4951 39 24.9658 38.5085 27.271 37.5537C29.5762 36.5989 31.6707 35.1993 33.435 33.435C35.1993 31.6707 36.5989 29.5762 37.5537 27.271C38.5085 24.9658 39 22.4951 39 20C39 14.9609 36.9982 10.1282 33.435 6.56497C29.8718 3.00178 25.0391 1 20 1C14.9609 1 10.1282 3.00178 6.56497 6.56497C3.00178 10.1282 1 14.9609 1 20Z" fill="black" stroke="black" stroke-width="1.52" stroke-linecap="round" stroke-linejoin="round"/>
<path d="M19.9999 23.04L19.4625 23.5774L19.9999 24.1148L20.5373 23.5774L19.9999 23.04ZM20.7599 9.36001C20.7599 8.94027 20.4196 8.60001 19.9999 8.60001C19.5802 8.60001 19.2399 8.94027 19.2399 9.36001L20.7599 9.36001ZM11.8625 15.9774L19.4625 23.5774L20.5373 22.5026L12.9373 14.9026L11.8625 15.9774ZM20.5373 23.5774L28.1373 15.9774L27.0625 14.9026L19.4625 22.5026L20.5373 23.5774ZM20.7599 23.04L20.7599 9.36001L19.2399 9.36001L19.2399 23.04L20.7599 23.04Z" fill="white"/>
<path d="M9.36011 26.08L9.36011 27.6C9.36011 29.279 10.7212 30.64 12.4001 30.64L27.6001 30.64C29.2791 30.64 30.6401 29.279 30.6401 27.6V26.08" stroke="white" stroke-width="1.52"/>
</svg>
