<svg width="46" height="45" viewBox="0 0 46 45" fill="none" xmlns="http://www.w3.org/2000/svg">
<circle cx="23" cy="22.5" r="22.5" fill="white"/>
<path d="M23.4996 19.0419C21.36 19.0419 19.5413 20.8606 19.5413 23.0002C19.5413 25.1398 21.36 26.9585 23.4996 26.9585C25.6392 26.9585 27.4579 25.1398 27.4579 23.0002C27.4579 20.8606 25.6392 19.0419 23.4996 19.0419Z" fill="black"/>
<path d="M28.5739 11.125H18.5341C14.6477 11.125 11.625 14.1477 11.625 17.9261V27.9659C11.625 31.8523 14.6477 34.875 18.5341 34.875H28.5739C32.3523 34.875 35.375 31.8523 35.375 27.9659V17.9261C35.375 14.1477 32.3523 11.125 28.5739 11.125ZM23.5 29.2614C20.0455 29.2614 17.3466 26.4545 17.3466 23.108C17.3466 19.7614 20.0455 16.8466 23.5 16.8466C26.9545 16.8466 29.6534 19.6534 29.6534 23C29.6534 26.3466 26.9545 29.2614 23.5 29.2614ZM29.8693 18.142C29.1136 18.142 28.4659 17.4943 28.4659 16.7386C28.4659 15.983 29.1136 15.3352 29.8693 15.3352C30.625 15.3352 31.2727 15.983 31.2727 16.7386C31.2727 17.4943 30.625 18.142 29.8693 18.142Z" fill="black"/>
</svg>
