<svg width="46" height="45" viewBox="0 0 46 45" fill="none" xmlns="http://www.w3.org/2000/svg">
<circle cx="23" cy="22.5" r="22.5" fill="white"/>
<path fill-rule="evenodd" clip-rule="evenodd" d="M24.3951 14.2701C26.5053 12.16 29.9946 12.16 32.1048 14.2701C34.215 16.3803 34.215 19.8697 32.1048 21.9799L28.2537 25.8309C26.4208 27.8157 23.4381 27.92 21.3832 26.5501C20.6652 26.0714 20.4712 25.1013 20.9498 24.3833C21.4285 23.6653 22.3986 23.4712 23.1166 23.9499C24.0515 24.5732 25.2993 24.4354 25.9688 23.6989C25.9854 23.6806 26.0025 23.6627 26.0201 23.6451L29.8951 19.7701C30.7849 18.8803 30.7849 17.3697 29.8951 16.4799C29.0371 15.6219 27.602 15.5912 26.7027 16.3877L26.55 16.6167C26.0713 17.3347 25.1012 17.5288 24.3832 17.0501C23.6652 16.5714 23.4712 15.6013 23.9498 14.8833L24.1998 14.5083C24.2569 14.4227 24.3223 14.3429 24.3951 14.2701Z" fill="black"/>
<path fill-rule="evenodd" clip-rule="evenodd" d="M18.6989 20.094C20.5392 18.421 23.3714 17.9818 25.5625 19.6251C26.2529 20.1429 26.3928 21.1223 25.875 21.8126C25.3572 22.503 24.3779 22.6429 23.6875 22.1251C22.8884 21.5258 21.739 21.5779 20.8342 22.3766L16.9973 26.3373L16.9799 26.355C16.09 27.2448 16.09 28.7555 16.9799 29.6453C17.8697 30.5351 19.3803 30.5351 20.2701 29.6453L21.375 30.7501L20.2701 29.6453L20.6451 29.2703C21.2553 28.6601 22.2447 28.6601 22.8549 29.2703C23.465 29.8805 23.465 30.8698 22.8549 31.48L22.4799 31.855C20.3697 33.9652 16.8803 33.9652 14.7701 31.855C12.6631 29.748 12.66 26.266 14.7606 24.1548L18.6277 20.163C18.6507 20.1392 18.6745 20.1162 18.6989 20.094Z" fill="black"/>
</svg>
