<svg width="24" height="22" viewBox="0 0 24 22" fill="none" xmlns="http://www.w3.org/2000/svg">
<path d="M22.5325 2.033H18.7614V1.04106C18.7614 0.802997 18.6164 0.644287 18.3988 0.644287C18.1813 0.644287 18.0362 0.802997 18.0362 1.04106V2.033H12.6334V1.04106C12.6334 0.802997 12.4884 0.644287 12.2708 0.644287C12.0533 0.644287 11.9082 0.802997 11.9082 1.04106V2.033H6.5054V1.04106C6.5054 0.802997 6.36036 0.644287 6.1428 0.644287C5.92523 0.644287 5.78019 0.802997 5.78019 1.04106V2.033H2.0091C1.35641 2.033 0.8125 2.62816 0.8125 3.34236V20.245C0.8125 20.9592 1.35641 21.5543 2.0091 21.5543H22.5325C23.1852 21.5543 23.7291 20.9592 23.7291 20.245V3.30268C23.7291 2.58849 23.1852 2.033 22.5325 2.033ZM22.5325 20.7211H2.0091C1.75528 20.7211 1.53771 20.4831 1.53771 20.2053V7.31011H16.9484C17.166 7.31011 17.311 7.1514 17.311 6.91334C17.311 6.67527 17.166 6.51656 16.9484 6.51656H1.53771V3.30268C1.53771 3.02494 1.75528 2.78687 2.0091 2.78687H5.78019V3.77881C5.78019 4.01688 5.92523 4.17559 6.1428 4.17559C6.36036 4.17559 6.5054 4.01688 6.5054 3.77881V2.82655H11.9082V3.81849C11.9082 4.05656 12.0533 4.21527 12.2708 4.21527C12.4884 4.21527 12.6334 4.05656 12.6334 3.81849V2.82655H18.0362V3.81849C18.0362 4.05656 18.1813 4.21527 18.3988 4.21527C18.6164 4.21527 18.7614 4.05656 18.7614 3.81849V2.82655H22.5325C22.7864 2.82655 23.0039 3.06462 23.0039 3.34236V6.55624H19.5592C19.3416 6.55624 19.1966 6.71495 19.1966 6.95301C19.1966 7.19108 19.3416 7.34979 19.5592 7.34979H23.0039V20.245C23.0039 20.4831 22.7864 20.7211 22.5325 20.7211Z" fill="#4F8D52"/>
<path d="M18.8339 6.91313C18.8339 6.67507 18.6889 6.51636 18.4713 6.51636H18.1087C17.8911 6.51636 17.7461 6.67507 17.7461 6.91313C17.7461 7.1512 17.8911 7.30991 18.1087 7.30991H18.4713C18.6889 7.30991 18.8339 7.1512 18.8339 6.91313Z" fill="#4F8D52"/>
<path d="M5.7073 9.96899H3.49542C3.27785 9.96899 3.13281 10.1277 3.13281 10.3658C3.13281 10.6038 3.27785 10.7625 3.49542 10.7625H5.7073C5.92486 10.7625 6.0699 10.6038 6.0699 10.3658C6.0699 10.1277 5.8886 9.96899 5.7073 9.96899Z" fill="#4F8D52"/>
<path d="M9.55106 9.96899H7.33917C7.1216 9.96899 6.97656 10.1277 6.97656 10.3658C6.97656 10.6038 7.1216 10.7625 7.33917 10.7625H9.55106C9.76862 10.7625 9.91366 10.6038 9.91366 10.3658C9.91366 10.1277 9.76862 9.96899 9.55106 9.96899Z" fill="#4F8D52"/>
<path d="M13.3948 9.96899H11.1829C10.9654 9.96899 10.8203 10.1277 10.8203 10.3658C10.8203 10.6038 10.9654 10.7625 11.1829 10.7625H13.3948C13.6124 10.7625 13.7574 10.6038 13.7574 10.3658C13.7574 10.1277 13.6124 9.96899 13.3948 9.96899Z" fill="#4F8D52"/>
<path d="M17.2425 9.96899H15.0306C14.813 9.96899 14.668 10.1277 14.668 10.3658C14.668 10.6038 14.813 10.7625 15.0306 10.7625H17.2425C17.46 10.7625 17.6051 10.6038 17.6051 10.3658C17.6051 10.1277 17.46 9.96899 17.2425 9.96899Z" fill="#4F8D52"/>
<path d="M21.0823 9.96899H18.8704C18.6529 9.96899 18.5078 10.1277 18.5078 10.3658C18.5078 10.6038 18.6529 10.7625 18.8704 10.7625H21.0823C21.2999 10.7625 21.4449 10.6038 21.4449 10.3658C21.4449 10.1277 21.2999 9.96899 21.0823 9.96899Z" fill="#4F8D52"/>
<path d="M5.7073 13.5789H3.49542C3.27785 13.5789 3.13281 13.7376 3.13281 13.9756C3.13281 14.2137 3.27785 14.3724 3.49542 14.3724H5.7073C5.92486 14.3724 6.0699 14.2137 6.0699 13.9756C6.0699 13.7376 5.8886 13.5789 5.7073 13.5789Z" fill="#4F8D52"/>
<path d="M9.55106 13.5789H7.33917C7.1216 13.5789 6.97656 13.7376 6.97656 13.9756C6.97656 14.2137 7.1216 14.3724 7.33917 14.3724H9.55106C9.76862 14.3724 9.91366 14.2137 9.91366 13.9756C9.91366 13.7376 9.76862 13.5789 9.55106 13.5789Z" fill="#4F8D52"/>
<path d="M13.3948 13.5789H11.1829C10.9654 13.5789 10.8203 13.7376 10.8203 13.9756C10.8203 14.2137 10.9654 14.3724 11.1829 14.3724H13.3948C13.6124 14.3724 13.7574 14.2137 13.7574 13.9756C13.7574 13.7376 13.6124 13.5789 13.3948 13.5789Z" fill="#4F8D52"/>
<path d="M17.2425 13.5789H15.0306C14.813 13.5789 14.668 13.7376 14.668 13.9756C14.668 14.2137 14.813 14.3724 15.0306 14.3724H17.2425C17.46 14.3724 17.6051 14.2137 17.6051 13.9756C17.6051 13.7376 17.46 13.5789 17.2425 13.5789Z" fill="#4F8D52"/>
<path d="M21.0823 13.5789H18.8704C18.6529 13.5789 18.5078 13.7376 18.5078 13.9756C18.5078 14.2137 18.6529 14.3724 18.8704 14.3724H21.0823C21.2999 14.3724 21.4449 14.2137 21.4449 13.9756C21.4449 13.7376 21.2999 13.5789 21.0823 13.5789Z" fill="#4F8D52"/>
<path d="M5.7073 17.2297H3.49542C3.27785 17.2297 3.13281 17.3884 3.13281 17.6265C3.13281 17.8646 3.27785 18.0233 3.49542 18.0233H5.7073C5.92486 18.0233 6.0699 17.8646 6.0699 17.6265C6.0699 17.3884 5.8886 17.2297 5.7073 17.2297Z" fill="#4F8D52"/>
<path d="M9.55106 17.2297H7.33917C7.1216 17.2297 6.97656 17.3884 6.97656 17.6265C6.97656 17.8646 7.1216 18.0233 7.33917 18.0233H9.55106C9.76862 18.0233 9.91366 17.8646 9.91366 17.6265C9.91366 17.3884 9.76862 17.2297 9.55106 17.2297Z" fill="#4F8D52"/>
<path d="M13.3948 17.2297H11.1829C10.9654 17.2297 10.8203 17.3884 10.8203 17.6265C10.8203 17.8646 10.9654 18.0233 11.1829 18.0233H13.3948C13.6124 18.0233 13.7574 17.8646 13.7574 17.6265C13.7574 17.3884 13.6124 17.2297 13.3948 17.2297Z" fill="#4F8D52"/>
<path d="M17.2425 17.2297H15.0306C14.813 17.2297 14.668 17.3884 14.668 17.6265C14.668 17.8646 14.813 18.0233 15.0306 18.0233H17.2425C17.46 18.0233 17.6051 17.8646 17.6051 17.6265C17.6051 17.3884 17.46 17.2297 17.2425 17.2297Z" fill="#4F8D52"/>
<path d="M21.0823 17.2297H18.8704C18.6529 17.2297 18.5078 17.3884 18.5078 17.6265C18.5078 17.8646 18.6529 18.0233 18.8704 18.0233H21.0823C21.2999 18.0233 21.4449 17.8646 21.4449 17.6265C21.4449 17.3884 21.2999 17.2297 21.0823 17.2297Z" fill="#4F8D52"/>
</svg>
