<svg width="70" height="70" viewBox="0 0 70 70" fill="none" xmlns="http://www.w3.org/2000/svg">
<circle cx="35" cy="35" r="35" fill="white"/>
<mask id="path-2-outside-1_197_1053" maskUnits="userSpaceOnUse" x="10.6914" y="21.5" width="31" height="30" fill="black">
<rect fill="white" x="10.6914" y="21.5" width="31" height="30"/>
<path d="M15.8952 44.4351C15.8952 47.0687 18.0301 49.2036 20.6637 49.2036C23.2973 49.2036 25.4322 47.0687 25.4322 44.4351C25.4322 41.8016 23.2973 39.6666 20.6637 39.6666C18.0301 39.6666 15.8952 41.8016 15.8952 44.4351Z"/>
</mask>
<path d="M22.5711 25.3611L23.2698 25.7105V25.7105L22.5711 25.3611ZM19.71 31.0833L20.4087 31.4327C20.3998 31.4506 20.3902 31.4681 20.3799 31.4853L19.71 31.0833ZM13.9878 44.4351L13.9878 43.6539H13.9878V44.4351ZM15.0715 43.6539C15.503 43.6539 15.8528 44.0037 15.8528 44.4351C15.8528 44.8666 15.503 45.2164 15.0715 45.2164V43.6539ZM27.3396 45.2164C26.9081 45.2164 26.5583 44.8666 26.5583 44.4351C26.5583 44.0037 26.9081 43.6539 27.3396 43.6539V45.2164ZM40.6914 43.6539C41.1229 43.6539 41.4727 44.0037 41.4727 44.4351C41.4727 44.8666 41.1229 45.2164 40.6914 45.2164V43.6539ZM25.4322 23.2812C25.0377 23.2812 24.713 23.453 24.3624 23.8647C23.9881 24.3044 23.6597 24.9308 23.2698 25.7105L21.8723 25.0117C22.2454 24.2655 22.6539 23.4613 23.1726 22.8519C23.7151 22.2146 24.4394 21.7188 25.4322 21.7188V23.2812ZM23.2698 25.7105L20.4087 31.4327L19.0112 30.7339L21.8723 25.0117L23.2698 25.7105ZM19.71 31.0833C20.3799 31.4853 20.3795 31.4858 20.3792 31.4864C20.3791 31.4866 20.3787 31.4872 20.3785 31.4876C20.378 31.4884 20.3775 31.4892 20.377 31.4901C20.376 31.4917 20.3749 31.4934 20.3738 31.4952C20.3716 31.4988 20.3692 31.5026 20.3667 31.5066C20.3615 31.5146 20.3557 31.5236 20.349 31.5333C20.3357 31.5529 20.3193 31.5758 20.2995 31.6015C20.2598 31.6529 20.2065 31.7154 20.1372 31.7848C19.998 31.9239 19.7971 32.0876 19.5172 32.2431C18.954 32.556 18.104 32.8183 16.8489 32.8183V31.2558C17.8827 31.2558 18.4632 31.0412 18.7583 30.8772C18.9076 30.7943 18.9927 30.7195 19.0324 30.6799C19.0525 30.6598 19.0618 30.6478 19.0623 30.6471C19.0626 30.6467 19.0607 30.6491 19.0569 30.6547C19.0551 30.6575 19.0527 30.6611 19.0499 30.6655C19.0484 30.6677 19.0469 30.6702 19.0453 30.6728C19.0445 30.6741 19.0436 30.6755 19.0427 30.6769C19.0423 30.6776 19.0419 30.6784 19.0414 30.6791C19.0412 30.6795 19.0409 30.68 19.0407 30.6802C19.0404 30.6808 19.0401 30.6814 19.71 31.0833ZM16.8489 32.8183C16.1489 32.8183 15.1015 32.9914 14.2585 33.477C13.4543 33.9401 12.8616 34.6613 12.8616 35.8518H11.2991C11.2991 33.9905 12.2959 32.8042 13.4786 32.123C14.6225 31.4641 15.9594 31.2558 16.8489 31.2558V32.8183ZM12.8616 35.8518V42.5277H11.2991V35.8518H12.8616ZM12.8616 42.5277C12.8616 42.7131 12.9774 43.0027 13.2451 43.2704C13.5128 43.5381 13.8024 43.6539 13.9878 43.6539L13.9878 45.2164C13.2628 45.2164 12.5987 44.8336 12.1403 44.3752C11.6818 43.9168 11.2991 43.2527 11.2991 42.5277H12.8616ZM13.9878 43.6539H15.0715V45.2164H13.9878V43.6539ZM27.3396 43.6539H40.6914V45.2164H27.3396V43.6539ZM25.4322 21.7188H40.6914V23.2812H25.4322V21.7188ZM17.4577 44.4351C17.4577 46.2058 18.893 47.6411 20.6637 47.6411V50.7661C17.1672 50.7661 14.3327 47.9316 14.3327 44.4351H17.4577ZM20.6637 47.6411C22.4343 47.6411 23.8697 46.2058 23.8697 44.4351H26.9947C26.9947 47.9316 24.1602 50.7661 20.6637 50.7661V47.6411ZM23.8697 44.4351C23.8697 42.6645 22.4343 41.2291 20.6637 41.2291V38.1041C24.1602 38.1041 26.9947 40.9386 26.9947 44.4351H23.8697ZM20.6637 41.2291C18.893 41.2291 17.4577 42.6645 17.4577 44.4351H14.3327C14.3327 40.9386 17.1672 38.1041 20.6637 38.1041V41.2291Z" fill="black" mask="url(#path-2-outside-1_197_1053)"/>
<mask id="path-4-outside-2_197_1053" maskUnits="userSpaceOnUse" x="29.0273" y="21.5" width="31" height="30" fill="black">
<rect fill="white" x="29.0273" y="21.5" width="31" height="30"/>
<path d="M54.8236 44.4351C54.8236 47.0687 52.6886 49.2036 50.0551 49.2036C47.4215 49.2036 45.2866 47.0687 45.2866 44.4351C45.2866 41.8016 47.4215 39.6666 50.0551 39.6666C52.6886 39.6666 54.8236 41.8016 54.8236 44.4351Z"/>
</mask>
<path d="M48.1477 25.3611L47.4489 25.7105V25.7105L48.1477 25.3611ZM51.0088 31.0833L50.31 31.4327C50.3189 31.4506 50.3286 31.4681 50.3389 31.4853L51.0088 31.0833ZM56.731 44.4351L56.731 43.6539H56.731V44.4351ZM55.6472 43.6539C55.2158 43.6539 54.866 44.0037 54.866 44.4351C54.866 44.8666 55.2158 45.2164 55.6472 45.2164V43.6539ZM43.3792 45.2164C43.8106 45.2164 44.1604 44.8666 44.1604 44.4351C44.1604 44.0037 43.8106 43.6539 43.3792 43.6539V45.2164ZM30.0273 43.6539C29.5959 43.6539 29.2461 44.0037 29.2461 44.4351C29.2461 44.8666 29.5959 45.2164 30.0273 45.2164V43.6539ZM45.2866 23.2812C45.681 23.2812 46.0058 23.453 46.3563 23.8647C46.7306 24.3044 47.0591 24.9308 47.4489 25.7105L48.8464 25.0117C48.4733 24.2655 48.0648 23.4613 47.5461 22.8519C47.0036 22.2146 46.2793 21.7188 45.2866 21.7188V23.2812ZM47.4489 25.7105L50.31 31.4327L51.7075 30.7339L48.8464 25.0117L47.4489 25.7105ZM51.0088 31.0833C50.3389 31.4853 50.3392 31.4858 50.3396 31.4864C50.3397 31.4866 50.34 31.4872 50.3403 31.4876C50.3408 31.4884 50.3413 31.4892 50.3418 31.4901C50.3428 31.4917 50.3438 31.4934 50.3449 31.4952C50.3471 31.4988 50.3495 31.5026 50.3521 31.5066C50.3572 31.5146 50.3631 31.5236 50.3697 31.5333C50.383 31.5529 50.3994 31.5758 50.4193 31.6015C50.4589 31.6529 50.5122 31.7154 50.5815 31.7848C50.7207 31.9239 50.9216 32.0876 51.2016 32.2431C51.7647 32.556 52.6148 32.8183 53.8699 32.8183V31.2558C52.8361 31.2558 52.2556 31.0412 51.9604 30.8772C51.8112 30.7943 51.726 30.7195 51.6864 30.6799C51.6663 30.6598 51.657 30.6478 51.6564 30.6471C51.6561 30.6467 51.658 30.6491 51.6618 30.6547C51.6637 30.6575 51.6661 30.6611 51.6689 30.6655C51.6703 30.6677 51.6718 30.6702 51.6735 30.6728C51.6743 30.6741 51.6751 30.6755 51.676 30.6769C51.6764 30.6776 51.6769 30.6784 51.6773 30.6791C51.6776 30.6795 51.6779 30.68 51.678 30.6802C51.6784 30.6808 51.6787 30.6814 51.0088 31.0833ZM53.8699 32.8183C54.5699 32.8183 55.6173 32.9914 56.4603 33.477C57.2644 33.9401 57.8571 34.6613 57.8571 35.8518H59.4196C59.4196 33.9905 58.4229 32.8042 57.2401 32.123C56.0963 31.4641 54.7594 31.2558 53.8699 31.2558V32.8183ZM57.8571 35.8518V42.5277H59.4196V35.8518H57.8571ZM57.8571 42.5277C57.8571 42.7131 57.7413 43.0027 57.4736 43.2704C57.2059 43.5381 56.9164 43.6539 56.731 43.6539L56.731 45.2164C57.456 45.2164 58.1201 44.8336 58.5785 44.3752C59.0369 43.9168 59.4196 43.2527 59.4196 42.5277H57.8571ZM56.731 43.6539H55.6472V45.2164H56.731V43.6539ZM43.3792 43.6539H30.0273V45.2164H43.3792V43.6539ZM45.2866 21.7188H30.0273V23.2812H45.2866V21.7188ZM53.2611 44.4351C53.2611 46.2058 51.8257 47.6411 50.0551 47.6411V50.7661C53.5516 50.7661 56.3861 47.9316 56.3861 44.4351H53.2611ZM50.0551 47.6411C48.2844 47.6411 46.8491 46.2058 46.8491 44.4351H43.7241C43.7241 47.9316 46.5586 50.7661 50.0551 50.7661V47.6411ZM46.8491 44.4351C46.8491 42.6645 48.2844 41.2291 50.0551 41.2291V38.1041C46.5586 38.1041 43.7241 40.9386 43.7241 44.4351H46.8491ZM50.0551 41.2291C51.8257 41.2291 53.2611 42.6645 53.2611 44.4351H56.3861C56.3861 40.9386 53.5516 38.1041 50.0551 38.1041V41.2291Z" fill="black" mask="url(#path-4-outside-2_197_1053)"/>
<path d="M44.873 25.625H36.7031C36.66 25.625 36.625 25.66 36.625 25.7031V33.5233C36.625 33.5664 36.66 33.6014 36.7031 33.6014H48.9395C48.9981 33.6014 49.0359 33.5393 49.0088 33.4872L44.9424 25.6671C44.9289 25.6412 44.9022 25.625 44.873 25.625Z" stroke="black" stroke-width="1.5625"/>
<path d="M26.2481 25.625H34.418C34.4611 25.625 34.4961 25.66 34.4961 25.7031V33.5233C34.4961 33.5664 34.4611 33.6014 34.418 33.6014H22.1816C22.123 33.6014 22.0852 33.5393 22.1123 33.4872L26.1787 25.6671C26.1922 25.6412 26.2189 25.625 26.2481 25.625Z" stroke="black" stroke-width="1.5625"/>
</svg>
