<svg width="70" height="70" viewBox="0 0 70 70" fill="none" xmlns="http://www.w3.org/2000/svg">
<circle cx="35" cy="35" r="35" fill="white"/>
<path d="M20.832 30.6633C20.832 28.9548 20.832 28.1005 21.1698 27.4503C21.4544 26.9024 21.9012 26.4556 22.4491 26.171C23.0993 25.8333 23.9536 25.8333 25.662 25.8333H44.3354C46.0438 25.8333 46.8981 25.8333 47.5483 26.171C48.0962 26.4556 48.543 26.9024 48.8276 27.4503C49.1654 28.1005 49.1654 28.9548 49.1654 30.6633V41.0033C49.1654 42.7117 49.1654 43.566 48.8276 44.2162C48.543 44.7641 48.0962 45.2109 47.5483 45.4955C46.8981 45.8333 46.0438 45.8333 44.3354 45.8333H25.662C23.9536 45.8333 23.0993 45.8333 22.4491 45.4955C21.9012 45.2109 21.4544 44.7641 21.1698 44.2162C20.832 43.566 20.832 42.7117 20.832 41.0033V30.6633Z" stroke="#222222" stroke-width="1.66667"/>
<path d="M20.832 32.5L49.1654 32.5" stroke="#222222" stroke-width="1.66667" stroke-linecap="round"/>
<circle cx="25.8333" cy="40.8333" r="0.833333" fill="#222222"/>
</svg>
