<svg width="28" height="31" viewBox="0 0 28 31" fill="none" xmlns="http://www.w3.org/2000/svg">
<path d="M14.0518 0.163574C6.52712 0.163574 0.402344 6.86552 0.402344 15.0993C0.402344 23.3331 6.52712 30.0351 14.0518 30.0351C21.5765 30.0351 27.7013 23.3331 27.7013 15.0993C27.7013 6.86552 21.5765 0.163574 14.0518 0.163574ZM14.0518 29.0298C7.00835 29.0298 1.27731 22.7587 1.27731 15.0515C1.27731 7.34423 7.00835 1.07312 14.0518 1.07312C21.0953 1.07312 26.8263 7.34423 26.8263 15.0515C26.8263 22.7587 21.0953 29.0298 14.0518 29.0298Z" fill="#4F8D52"/>
<path d="M4.12106 15.099C4.12106 9.11515 8.5834 4.2323 14.0519 4.2323C15.4081 4.2323 16.6768 4.51953 17.9018 5.09398C18.1205 5.18972 18.383 5.09398 18.4705 4.85463C18.558 4.61527 18.4705 4.32805 18.2518 4.2323C16.9393 3.60998 15.4956 3.32275 14.0519 3.32275C8.10217 3.32275 3.24609 8.63644 3.24609 15.1469C3.24609 18.0192 4.16481 20.7478 5.91475 22.902C6.00224 22.9977 6.13348 23.0456 6.26473 23.0456C6.35222 23.0456 6.48347 22.9977 6.57097 22.9499C6.74596 22.7584 6.78972 22.4712 6.61472 22.2797C4.99603 20.2212 4.12106 17.6841 4.12106 15.099Z" fill="#4F8D52"/>
<path d="M8.97539 24.4348C8.49416 24.0997 8.01292 23.7168 7.57544 23.3338C7.40044 23.1423 7.13796 23.1902 6.96296 23.3817C6.78797 23.5732 6.83172 23.8604 7.00671 24.0519C7.48794 24.4827 8.01293 24.9136 8.53791 25.2487C8.6254 25.2965 8.66915 25.2965 8.75665 25.2965C8.88789 25.2965 9.06288 25.2008 9.15038 25.0572C9.23788 24.8657 9.15038 24.5306 8.97539 24.4348Z" fill="#4F8D52"/>
<path d="M19.6535 4.95123C19.4348 4.80761 19.1723 4.90336 19.0411 5.09484C18.9098 5.33419 18.9973 5.62142 19.1723 5.76503C22.1472 7.77562 23.9409 11.2223 23.9409 15.052C23.9409 21.0359 19.4785 25.9187 14.01 25.9187C12.7413 25.9187 11.5163 25.6794 10.3789 25.1528C10.1601 25.0571 9.89765 25.1528 9.81015 25.44C9.72266 25.6794 9.81016 25.9666 10.0726 26.0623C11.3413 26.5889 12.6538 26.8762 14.0537 26.8762C20.0035 26.8762 24.8596 21.5625 24.8596 15.052C24.8596 10.9351 22.9347 7.15329 19.6535 4.95123Z" fill="#4F8D52"/>
<path d="M14.4882 7.48726C14.4882 7.20003 14.3133 7.00854 14.0508 7.00854C13.7883 7.00854 13.6133 7.20003 13.6133 7.48726V15.0509C13.6133 15.3381 13.7883 15.5296 14.0508 15.5296C14.0945 15.5296 14.0945 15.5296 14.0945 15.5296H14.1383H18.5568C18.8193 15.5296 18.9943 15.3381 18.9943 15.0509C18.9943 14.7637 18.8193 14.5722 18.5568 14.5722H14.4445V7.48726H14.4882Z" fill="#4F8D52"/>
</svg>
