<svg width="59" height="53" viewBox="0 0 59 53" fill="none" xmlns="http://www.w3.org/2000/svg">
<rect x="0.273438" width="58" height="53" fill="#E6E6E6"/>
<path d="M18.7734 21.8172C18.7734 18.046 18.7734 16.1604 19.945 14.9888C21.1166 13.8172 23.0022 13.8172 26.7734 13.8172H31.7734C35.5447 13.8172 37.4303 13.8172 38.6019 14.9888C39.7734 16.1604 39.7734 18.046 39.7734 21.8172V28.0404C39.7734 32.2538 39.7734 34.3605 38.7623 35.8738C38.3245 36.529 37.762 37.0915 37.1069 37.5292C35.5935 38.5404 33.4868 38.5404 29.2734 38.5404V38.5404C25.0601 38.5404 22.9534 38.5404 21.44 37.5292C20.7849 37.0915 20.2224 36.529 19.7846 35.8738C18.7734 34.3605 18.7734 32.2538 18.7734 28.0404V21.8172Z" stroke="#33363F" stroke-width="2" stroke-linejoin="round"/>
<path d="M29.2734 13.8172V21.0887" stroke="#33363F" stroke-width="2" stroke-linecap="round" stroke-linejoin="round"/>
</svg>
