<svg width="70" height="70" viewBox="0 0 70 70" fill="none" xmlns="http://www.w3.org/2000/svg">
<circle cx="35" cy="35" r="35" fill="white"/>
<ellipse cx="34.9987" cy="26.6667" rx="11.6667" ry="5" stroke="#222222" stroke-width="1.66667"/>
<path d="M23.332 36.6667C23.332 36.6667 23.332 40.572 23.332 43.3334C23.332 46.0948 28.5554 48.3334 34.9987 48.3334C41.442 48.3334 46.6654 46.0948 46.6654 43.3334C46.6654 41.9551 46.6654 36.6667 46.6654 36.6667" stroke="#222222" stroke-width="1.66667" stroke-linecap="square"/>
<path d="M23.332 26.6667C23.332 26.6667 23.332 32.2387 23.332 35.0001C23.332 37.7615 28.5554 40.0001 34.9987 40.0001C41.442 40.0001 46.6654 37.7615 46.6654 35.0001C46.6654 33.6217 46.6654 26.6667 46.6654 26.6667" stroke="#222222" stroke-width="1.66667"/>
</svg>
