<svg width="70" height="70" viewBox="0 0 70 70" fill="none" xmlns="http://www.w3.org/2000/svg">
<circle cx="35" cy="35" r="35" fill="white"/>
<path d="M29.168 35.8333L40.8346 35.8333" stroke="#222222" stroke-width="1.66667" stroke-linecap="round"/>
<path d="M29.168 40.8333L35.8346 40.8333" stroke="#222222" stroke-width="1.66667" stroke-linecap="round"/>
<path d="M24.168 24.8333C24.168 23.4331 24.168 22.7331 24.4405 22.1983C24.6801 21.7279 25.0626 21.3454 25.533 21.1057C26.0678 20.8333 26.7678 20.8333 28.168 20.8333H35.8444C36.4559 20.8333 36.7617 20.8333 37.0494 20.9023C37.3045 20.9636 37.5483 21.0646 37.772 21.2017C38.0243 21.3563 38.2405 21.5724 38.6729 22.0048L44.6631 27.995C45.0954 28.4274 45.3116 28.6436 45.4662 28.8959C45.6033 29.1196 45.7043 29.3634 45.7656 29.6185C45.8346 29.9062 45.8346 30.212 45.8346 30.8234V45.1666C45.8346 46.5667 45.8346 47.2668 45.5622 47.8016C45.3225 48.272 44.94 48.6544 44.4696 48.8941C43.9348 49.1666 43.2348 49.1666 41.8346 49.1666H28.168C26.7678 49.1666 26.0678 49.1666 25.533 48.8941C25.0626 48.6544 24.6801 48.272 24.4405 47.8016C24.168 47.2668 24.168 46.5667 24.168 45.1666V24.8333Z" stroke="#222222" stroke-width="1.66667"/>
<path d="M35.832 20.8333V26.8333C35.832 28.2334 35.832 28.9334 36.1045 29.4682C36.3442 29.9386 36.7266 30.3211 37.1971 30.5608C37.7318 30.8333 38.4319 30.8333 39.832 30.8333H45.832" stroke="#222222" stroke-width="1.66667"/>
</svg>
