<svg width="37" height="29" viewBox="0 0 37 29" fill="none" xmlns="http://www.w3.org/2000/svg">
<path d="M0.385254 10.7473C0.385254 4.6298 6.25168 0.0104141 13.0294 0.0104141C18.423 0.0104141 23.2052 2.91453 24.9623 7.17814C25.0411 7.36936 24.9039 7.57679 24.6978 7.59384C24.1238 7.64132 23.5538 7.72284 22.9919 7.83688C22.8485 7.866 22.7038 7.79285 22.6396 7.66125C21.154 4.61139 17.5048 2.32291 13.0294 2.32291C7.11795 2.32291 2.69775 6.28233 2.69775 10.7473C2.69775 13.1595 3.95255 15.387 6.06244 16.9618C6.35483 17.1801 6.52706 17.5236 6.52706 17.8884V19.3387L8.913 18.6754C9.12079 18.6177 9.3406 18.6192 9.54759 18.6798C10.4891 18.9554 11.4956 19.123 12.5452 19.1626C12.7117 19.1689 12.8459 19.3029 12.8531 19.4694C12.8817 20.1291 12.97 20.7663 13.1123 21.3789C13.1247 21.4325 13.0844 21.484 13.0294 21.4842C11.7051 21.4842 10.4255 21.3115 9.22173 20.9898L5.68049 21.9742C5.33233 22.071 4.95894 21.9995 4.67122 21.7808C4.38351 21.5622 4.21456 21.2216 4.21456 20.8602V18.4503C1.88686 16.5291 0.385254 13.8108 0.385254 10.7473Z" fill="#4F8D52"/>
<path d="M10.5677 7.73117C10.5677 8.63754 9.83299 9.3723 8.92662 9.3723C8.02025 9.3723 7.28549 8.63754 7.28549 7.73117C7.28549 6.8248 8.02025 6.09004 8.92662 6.09004C9.83299 6.09004 10.5677 6.8248 10.5677 7.73117Z" fill="#4F8D52"/>
<path d="M17.1322 9.3723C18.0386 9.3723 18.7734 8.63754 18.7734 7.73117C18.7734 6.8248 18.0386 6.09004 17.1322 6.09004C16.2259 6.09004 15.4911 6.8248 15.4911 7.73117C15.4911 8.63754 16.2259 9.3723 17.1322 9.3723Z" fill="#4F8D52"/>
<path d="M22.4248 18.3985C23.2179 18.3985 23.8608 17.7556 23.8608 16.9625C23.8608 16.1695 23.2179 15.5265 22.4248 15.5265C21.6317 15.5265 20.9888 16.1695 20.9888 16.9625C20.9888 17.7556 21.6317 18.3985 22.4248 18.3985Z" fill="#4F8D52"/>
<path d="M30.8357 16.9625C30.8357 17.7556 30.1927 18.3985 29.3997 18.3985C28.6066 18.3985 27.9637 17.7556 27.9637 16.9625C27.9637 16.1695 28.6066 15.5265 29.3997 15.5265C30.1927 15.5265 30.8357 16.1695 30.8357 16.9625Z" fill="#4F8D52"/>
<path fill-rule="evenodd" clip-rule="evenodd" d="M25.8776 10.1986C31.5979 10.1986 36.6071 14.1031 36.6071 19.3387C36.6071 21.927 35.3604 23.8783 33.4233 25.5067V27.4247C33.4233 27.7861 33.2544 28.1267 32.9666 28.3453C32.6789 28.5639 32.3055 28.6355 31.9574 28.5387L29.0567 27.7324C28.0522 27.9961 26.9866 28.1374 25.8849 28.1374C20.1646 28.1374 15.1554 24.2329 15.1554 18.9973C15.1554 13.7617 20.1573 10.1986 25.8776 10.1986ZM34.3019 18.9973C34.3019 15.4142 30.7389 12.1697 25.8849 12.1697C21.0309 12.1697 17.4679 15.4142 17.4679 18.9973C17.4679 22.5804 21.0309 25.8249 25.8849 25.8249C26.8872 25.8249 27.8454 25.6824 28.7323 25.4227C28.9392 25.3621 29.1591 25.3606 29.3669 25.4184L31.1108 25.9032V24.9482C31.1108 24.5833 31.283 24.2399 31.5754 24.0216C33.2936 22.7391 34.3019 20.9366 34.3019 18.9973Z" fill="#4F8D52"/>
</svg>
