<svg width="30" height="24" viewBox="0 0 30 24" fill="none" xmlns="http://www.w3.org/2000/svg">
<path d="M0.3125 8.76809C0.3125 3.80795 5.06906 0.0625 10.5645 0.0625C14.9377 0.0625 18.8151 2.41719 20.2398 5.87417C20.3037 6.02921 20.1925 6.1974 20.0254 6.21123C19.56 6.24972 19.0978 6.31581 18.6422 6.40828C18.5259 6.43189 18.4086 6.37258 18.3566 6.26588C17.152 3.79302 14.1932 1.9375 10.5645 1.9375C5.77144 1.9375 2.1875 5.14784 2.1875 8.76809C2.1875 10.7239 3.2049 12.53 4.91562 13.8069C5.1527 13.9839 5.29234 14.2623 5.29234 14.5582V15.7341L7.22689 15.1963C7.39537 15.1495 7.5736 15.1507 7.74142 15.1998C8.50482 15.4233 9.32085 15.5592 10.1719 15.5913C10.3069 15.5964 10.4157 15.7051 10.4216 15.8401C10.4448 16.3749 10.5164 16.8916 10.6317 17.3883C10.6418 17.4317 10.6091 17.4735 10.5645 17.4737C9.49072 17.4737 8.45328 17.3336 7.47721 17.0728L4.60594 17.871C4.32364 17.9495 4.02089 17.8915 3.78761 17.7142C3.55433 17.5369 3.41734 17.2607 3.41734 16.9677V15.0137C1.53002 13.456 0.3125 11.252 0.3125 8.76809Z" fill="black"/>
<path d="M8.56858 6.32257C8.56858 7.05747 7.97283 7.65322 7.23793 7.65322C6.50304 7.65322 5.90729 7.05747 5.90729 6.32257C5.90729 5.58768 6.50304 4.99193 7.23793 4.99193C7.97283 4.99193 8.56858 5.58768 8.56858 6.32257Z" fill="black"/>
<path d="M13.8911 7.65322C14.626 7.65322 15.2218 7.05747 15.2218 6.32257C15.2218 5.58768 14.626 4.99193 13.8911 4.99193C13.1562 4.99193 12.5605 5.58768 12.5605 6.32257C12.5605 7.05747 13.1562 7.65322 13.8911 7.65322Z" fill="black"/>
<path d="M18.1824 14.9718C18.8254 14.9718 19.3467 14.4505 19.3467 13.8075C19.3467 13.1644 18.8254 12.6431 18.1824 12.6431C17.5394 12.6431 17.0181 13.1644 17.0181 13.8075C17.0181 14.4505 17.5394 14.9718 18.1824 14.9718Z" fill="black"/>
<path d="M25.002 13.8075C25.002 14.4505 24.4807 14.9718 23.8377 14.9718C23.1947 14.9718 22.6734 14.4505 22.6734 13.8075C22.6734 13.1644 23.1947 12.6431 23.8377 12.6431C24.4807 12.6431 25.002 13.1644 25.002 13.8075Z" fill="black"/>
<path fill-rule="evenodd" clip-rule="evenodd" d="M20.982 8.32317C25.62 8.32317 29.6816 11.489 29.6816 15.7341C29.6816 17.8327 28.6707 19.4148 27.1001 20.7352V22.2903C27.1001 22.5833 26.9631 22.8595 26.7298 23.0367C26.4966 23.214 26.1938 23.272 25.9115 23.1936L23.5597 22.5398C22.7451 22.7536 21.8812 22.8682 20.9879 22.8682C16.3498 22.8682 12.2883 19.7024 12.2883 15.4573C12.2883 11.2122 16.3439 8.32317 20.982 8.32317ZM27.8125 15.4573C27.8125 12.552 24.9236 9.92136 20.9879 9.92136C17.0522 9.92136 14.1633 12.552 14.1633 15.4573C14.1633 18.3625 17.0522 20.9932 20.9879 20.9932C21.8006 20.9932 22.5775 20.8776 23.2966 20.6671C23.4644 20.6179 23.6426 20.6167 23.8111 20.6636L25.2251 21.0566V20.2823C25.2251 19.9865 25.3647 19.708 25.6018 19.5311C26.9949 18.4912 27.8125 17.0296 27.8125 15.4573Z" fill="black"/>
</svg>
