<svg width="22" height="23" viewBox="0 0 22 23" fill="none" xmlns="http://www.w3.org/2000/svg">
<path fill-rule="evenodd" clip-rule="evenodd" d="M21.1056 19.166C21.6618 13.8201 21.6618 8.43095 21.1056 3.08508C20.9073 1.17876 18.7093 0.21312 17.1711 1.35652L12.0416 5.16953C10.4785 6.33142 8.58273 6.95886 6.63513 6.95886H1.84863C0.985688 6.95886 0.286133 7.65841 0.286133 8.52136V13.7297C0.286133 14.5926 0.985686 15.2922 1.84863 15.2922H2.62898L1.57228 19.2358C1.45453 19.6753 1.6693 20.1359 2.08163 20.3281L6.68306 22.4739C6.93421 22.591 7.22432 22.591 7.47547 22.4739C7.72663 22.3568 7.9131 22.1345 7.98483 21.8669L9.56319 15.9763C9.57996 15.9138 9.58998 15.851 9.5937 15.7887C10.4656 16.0899 11.2918 16.5242 12.0416 17.0815L17.1711 20.8945C18.7093 22.0379 20.9073 21.0723 21.1056 19.166ZM19.2407 3.27911C19.7835 8.49597 19.7835 13.7551 19.2407 18.9719C19.1928 19.4327 18.6615 19.6661 18.2897 19.3897L13.1602 15.5767C11.2737 14.1744 8.98568 13.4172 6.63513 13.4172L2.16113 13.4172L2.16113 8.83386H6.63513C8.98569 8.83386 11.2737 8.07661 13.1602 6.67433L18.2897 2.86132C18.6615 2.58495 19.1928 2.81835 19.2407 3.27911ZM7.79483 15.3667C7.41183 15.3173 7.02451 15.2922 6.63513 15.2922H4.57012L3.587 18.9613L6.46289 20.3024L7.75208 15.491C7.7636 15.448 7.77794 15.4065 7.79483 15.3667Z" fill="black"/>
</svg>
