<svg width="30" height="30" viewBox="0 0 30 30" fill="none" xmlns="http://www.w3.org/2000/svg">
<path fill-rule="evenodd" clip-rule="evenodd" d="M28.4742 25.2206C29.2158 18.0928 29.2158 10.9072 28.4742 3.77941C28.2097 1.23766 25.2791 -0.0498601 23.2282 1.47467L16.3888 6.55869C14.3047 8.10788 11.777 8.94446 9.18017 8.94446H2.79818C1.64758 8.94446 0.714844 9.87719 0.714844 11.0278V17.9722C0.714844 19.1228 1.64758 20.0556 2.79818 20.0556H3.83864L2.42971 25.3138C2.27271 25.8997 2.55906 26.5138 3.10884 26.7702L9.24408 29.6312C9.57895 29.7873 9.96575 29.7873 10.3006 29.6312C10.6355 29.475 10.8841 29.1787 10.9798 28.8218L13.0843 20.9677C13.1066 20.8843 13.12 20.8006 13.1249 20.7176C14.2874 21.1191 15.3891 21.6982 16.3888 22.4413L23.2282 27.5254C25.2791 29.0499 28.2097 27.7624 28.4742 25.2206ZM25.9876 4.03813C26.7113 10.9939 26.7113 18.0061 25.9876 24.9619C25.9237 25.5763 25.2153 25.8874 24.7196 25.519L17.8802 20.4349C15.3649 18.5652 12.3142 17.5556 9.18017 17.5556L3.21484 17.5556L3.21484 11.4445H9.18017C12.3143 11.4445 15.3649 10.4348 17.8802 8.56508L24.7196 3.48107C25.2153 3.11259 25.9237 3.42378 25.9876 4.03813ZM10.7264 20.1549C10.2158 20.089 9.69935 20.0556 9.18017 20.0556H6.42683L5.11599 24.9477L8.95052 26.7358L10.6694 20.3207C10.6848 20.2634 10.7039 20.208 10.7264 20.1549Z" fill="#4F8D52"/>
</svg>
